<?xml version="1.0" standalone="no"?>
<!DOCTYPE svg PUBLIC "-//W3C//DTD SVG 20010904//EN"
 "http://www.w3.org/TR/2001/REC-SVG-20010904/DTD/svg10.dtd">
<svg version="1.0" xmlns="http://www.w3.org/2000/svg"
 width="260.000000pt" height="260.000000pt" viewBox="0 0 260.000000 260.000000"
 preserveAspectRatio="xMidYMid meet">
<metadata>
Created by potrace 1.11, written by Peter Selinger 2001-2013
</metadata>
<g transform="translate(0.000000,260.000000) scale(0.100000,-0.100000)"
fill="#000000" stroke="none">
<path d="M425 2585 c-210 -58 -364 -216 -410 -420 -14 -61 -15 -175 -13 -895
l3 -825 23 -64 c25 -68 78 -158 121 -205 67 -73 178 -136 280 -160 81 -19 311
-22 312 -4 0 7 1 435 1 951 1 854 2 937 17 938 70 5 355 3 363 -2 6 -4 10 -47
9 -104 l-2 -97 34 33 c19 19 32 37 30 42 -2 4 3 7 11 7 8 0 21 9 29 20 8 11
16 18 19 15 3 -3 17 6 31 19 15 14 27 22 27 19 0 -3 11 2 25 11 13 9 29 16 34
16 5 0 22 5 38 11 15 6 29 10 30 11 2 0 24 5 50 12 63 17 233 12 304 -7 96
-27 238 -105 239 -131 0 -5 -15 -25 -32 -46 -18 -20 -42 -48 -53 -61 -52 -63
-91 -109 -133 -158 -26 -30 -46 -58 -44 -63 1 -5 -6 -4 -17 1 -10 6 -21 7 -25
4 -3 -3 -6 -1 -6 5 0 6 -30 25 -67 43 -58 28 -79 33 -148 33 -44 1 -89 -3
-100 -8 -11 -5 -24 -10 -30 -10 -40 -4 -169 -103 -177 -135 -2 -8 -10 -23 -18
-33 -42 -52 -43 -75 -47 -726 l-3 -622 483 0 c531 0 565 3 680 60 145 73 248
203 292 370 22 81 22 1645 0 1736 -44 187 -182 341 -365 406 l-65 23 -840 2
c-686 1 -849 -1 -890 -12z"/>
</g>
</svg>
