<?xml version="1.0" encoding="utf-8"?>
<!-- Generator: Adobe Illustrator 19.0.1, SVG Export Plug-In . SVG Version: 6.00 Build 0)  -->
<svg version="1.1" xmlns="http://www.w3.org/2000/svg" xmlns:xlink="http://www.w3.org/1999/xlink" x="0px" y="0px"
	 viewBox="0 0 32 32" enable-background="new 0 0 32 32" xml:space="preserve">
<g id="Layer_6" display="none">
	<rect x="-43.667" y="-40.333" display="inline" fill="#E2E2E2" width="200" height="194.734"/>
</g>
<g id="Flat" display="none">
	<g display="inline">
		<path fill="#333333" d="M16,0C7.163,0,0,7.163,0,16c0,8.836,7.163,16,16,16s16-7.164,16-16C32,7.163,24.837,0,16,0z"/>
		<path fill="none" stroke="#FF6666" stroke-width="0.5" stroke-miterlimit="10" d="M16,1.359C7.914,1.359,1.359,7.914,1.359,16
			c0,8.086,6.555,14.641,14.641,14.641S30.641,24.086,30.641,16C30.641,7.914,24.086,1.359,16,1.359z"/>
	</g>
	<path display="inline" fill="#FFFFFF" d="M24.294,22.942v-6.137c0-3.288-1.755-4.818-4.096-4.818c-1.889,0-2.735,1.039-3.206,1.768
		v-1.517h-3.558c0.047,1.005,0,10.704,0,10.704h3.558v-5.978c0-0.319,0.023-0.639,0.117-0.867c0.257-0.639,0.842-1.301,1.825-1.301
		c1.288,0,1.803,0.981,1.803,2.42v5.727L24.294,22.942L24.294,22.942z M9.685,10.777c1.24,0,2.013-0.823,2.013-1.85
		c-0.023-1.05-0.773-1.849-1.99-1.849S7.696,7.877,7.696,8.927c0,1.028,0.772,1.85,1.967,1.85H9.685z M11.464,22.942V12.238H7.907
		v10.704H11.464z"/>
</g>
<g id="Flat_copy">
	<g>
		<path fill="#333333" d="M16,0C7.163,0,0,7.163,0,16c0,8.836,7.163,16,16,16s16-7.164,16-16C32,7.163,24.837,0,16,0z"/>
	</g>
	<path fill="#FFFFFF" d="M24.294,22.942v-6.137c0-3.288-1.755-4.818-4.096-4.818c-1.889,0-2.735,1.039-3.206,1.768v-1.517h-3.558
		c0.047,1.005,0,10.704,0,10.704h3.558v-5.978c0-0.319,0.023-0.639,0.117-0.867c0.257-0.639,0.842-1.301,1.825-1.301
		c1.288,0,1.803,0.981,1.803,2.42v5.727L24.294,22.942L24.294,22.942z M9.685,10.777c1.24,0,2.013-0.823,2.013-1.85
		c-0.023-1.05-0.773-1.849-1.99-1.849S7.696,7.877,7.696,8.927c0,1.028,0.772,1.85,1.967,1.85H9.685z M11.464,22.942V12.238H7.907
		v10.704H11.464z"/>
</g>
</svg>
